# xmcd
#
# Track frame offsets:
#	150
#	18043
#	38638
#	58430
#	78719
#	96948
#	110433
#	130819
#	153777
#	176495
#
# Disc length: 2610 seconds
#
# Revision: 1
# Processed by: cddbd v1.5.2PL0 Copyright (c) Steve Scherf et al.
# Submitted via: audiograbber 1.83.01
#
DISCID=780a300a
DTITLE=Labrinth - Electronic Earth
DYEAR=2012
DGENRE=Pop
TTITLE0=Climb On Board
TTITLE1=Earthquake (feat. Tinie Tempah)
TTITLE2=Last Time
TTITLE3=Treatment
TTITLE4=Express Yourself
TTITLE5=Let The Sun Shine
TTITLE6=Beneath Your Beautiful (feat. Emeli Sandé)
TTITLE7=Sundown
TTITLE8=Sweet Riot
TTITLE9=Vultures
EXTD=
EXTT0=
EXTT1=
EXTT2=
EXTT3=
EXTT4=
EXTT5=
EXTT6=
EXTT7=
EXTT8=
EXTT9=
PLAYORDER=
